<svg class="svg-icon" style="width: 1em; height: 1em;vertical-align: middle;fill: currentColor;overflow: hidden;" viewBox="0 0 1024 1024" version="1.1" xmlns="http://www.w3.org/2000/svg"><path d="M605 363.1c0.3 9.8 2.4 17.2 6.3 22 3.9 4.7 11.2 7.6 21.6 8.6v-54.2c-14.2-2.4-24.5-6.8-30.7-13-6.3-6.3-9.5-14.5-9.5-24.7 0-10.8 3.4-19.4 10-26 6.6-6.4 16.7-10.3 30.1-11.3v-17.1h12v17.1c13.3 1.4 23 5.2 28.9 11.5 5.9 6.3 9 14.7 9 25.2H668c-1-7.8-3.2-13.3-6.4-17.1-3.2-3.7-8.8-5.9-16.7-6.4v49c4.4 1.2 8.1 2.2 10.8 3 2.7 0.8 5.1 1.5 6.9 2.2 1.7 0.7 3.2 1.4 4.4 2.2 1.2 0.7 2.5 1.5 4.2 2.5 5.4 3.5 9.3 7.8 11.8 12.7 2.5 4.9 3.7 11 3.7 18.2 0 12-3.4 21.3-10.3 27.9-6.9 6.6-17.4 10.5-31.6 11.5v19.4h-12v-19.4c-15.5-1.2-26.7-5.4-33.3-12.8-6.6-7.3-10-17.7-9.8-31.1H605v0.1z m8.1-47.2c3.7 3.9 10.3 6.6 19.8 8.4v-46.8c-8.6 0.3-15 2.7-19.1 6.9-4.1 4.2-6.1 9.6-6.1 16.4-0.2 6.2 1.7 11.3 5.4 15.1z m52.7 35.7c-3.9-4.4-10.8-7.8-20.9-10v52.2c8.4-0.2 15-2.7 19.8-7.3 4.7-4.6 6.9-10.5 6.9-17.6 0-7-1.9-12.9-5.8-17.3z" fill="#FF960B" /><path d="M632.4 105.6c-100.5 0-186.3 64.5-218.1 154.4H225.7l31.1-49.2c4.9-7.9 2.5-18.2-5.2-23.3-7.9-4.9-18.2-2.5-23.3 5.2L180.8 268c0 0.2-0.2 0.2-0.2 0.3-0.2 0.2-0.2 0.3-0.3 0.5 0 0.2-0.2 0.3-0.2 0.5-0.2 0.2-0.2 0.3-0.3 0.5 0 0.2-0.2 0.3-0.2 0.5s-0.2 0.3-0.2 0.5c-0.2 0.2-0.2 0.5-0.2 0.7s-0.2 0.2-0.2 0.3c0 0.2-0.2 0.3-0.2 0.5s-0.2 0.5-0.2 0.7c0 0.2 0 0.2-0.2 0.3 0 0.2 0 0.3-0.2 0.5 0 0.2 0 0.5-0.2 0.7V279.3c0 0.2 0 0.5 0.2 0.7 0 0.2 0 0.3 0.2 0.5 0 0.2 0 0.2 0.2 0.3 0 0.2 0.2 0.5 0.2 0.7 0 0.2 0.2 0.3 0.2 0.5s0.2 0.2 0.2 0.3c0 0.2 0.2 0.5 0.2 0.7s0.2 0.3 0.2 0.5 0.2 0.3 0.2 0.5c0.2 0.2 0.2 0.3 0.3 0.5 0 0.2 0.2 0.3 0.2 0.5 0.2 0.2 0.2 0.3 0.3 0.5 0 0.2 0.2 0.2 0.2 0.3l47.5 75.2c3.2 5.1 8.6 7.9 14.4 7.9 3 0 6.3-0.8 9-2.5 7.9-4.9 10.3-15.4 5.2-23.3L225.7 294H405c-2.7 14-4.1 28.4-4.1 43.1 0 127.6 103.7 231.3 231.3 231.3s231.3-103.7 231.3-231.3-103.8-231.5-231.1-231.5z m0 428.8c-109 0-197.5-88.5-197.5-197.5 0-18.9 2.7-37.3 7.8-54.7 0-0.2 0.2-0.5 0.2-0.7 24-81.9 99.8-142.1 189.6-142.1 109 0 197.5 88.5 197.5 197.5s-88.8 197.5-197.6 197.5z" fill="#3B4552" /><path d="M839.8 754.5v-0.5-0.7-0.5-0.5c0-0.2 0-0.5-0.2-0.7 0-0.2 0-0.3-0.2-0.5 0-0.2 0-0.2-0.2-0.3 0-0.2-0.2-0.5-0.2-0.7 0-0.2-0.2-0.3-0.2-0.5s-0.2-0.2-0.2-0.3c0-0.2-0.2-0.5-0.2-0.7 0-0.2-0.2-0.3-0.2-0.5s-0.2-0.3-0.2-0.5c-0.2-0.2-0.2-0.3-0.3-0.5 0-0.2-0.2-0.3-0.2-0.3-0.2-0.2-0.2-0.3-0.3-0.5 0-0.2-0.2-0.2-0.2-0.3l-47.5-75.2c-4.9-7.9-15.4-10.3-23.3-5.2-7.9 4.9-10.3 15.4-5.2 23.3l31.1 49.2h-179c2.7-14 4.1-28.4 4.1-43.1 0-31.3-6.1-61.5-18.2-90-3.7-8.6-13.5-12.7-22.1-9-8.6 3.7-12.7 13.5-9 22.1 10.3 24.3 15.5 50.2 15.5 76.9 0 18.9-2.7 37.3-7.8 54.7-0.2 0.3-0.2 0.5-0.2 0.8-24.2 81.6-100 141.7-189.7 141.7-109 0-197.5-88.5-197.5-197.5s88.7-197.5 197.5-197.5c9.3 0 16.9-7.6 16.9-16.9 0-9.3-7.6-16.9-16.9-16.9-127.6 0-231.3 103.7-231.3 231.3S258.2 926 385.7 926c100.5 0 186.3-64.5 218.1-154.4h188.4l-31.1 49.2c-4.9 7.9-2.5 18.2 5.2 23.3 2.9 1.7 5.9 2.5 9 2.5 5.6 0 11.2-2.9 14.4-7.9l47.5-75.2c0-0.2 0.2-0.2 0.2-0.3 0.2-0.2 0.2-0.3 0.3-0.5 0-0.2 0.2-0.3 0.2-0.3 0.2-0.2 0.2-0.3 0.3-0.5 0-0.2 0.2-0.3 0.2-0.5s0.2-0.3 0.2-0.5c0.2-0.2 0.2-0.5 0.2-0.7 0-0.2 0.2-0.2 0.2-0.3 0-0.2 0.2-0.3 0.2-0.5s0.2-0.5 0.2-0.7c0-0.2 0-0.2 0.2-0.3 0-0.2 0-0.3 0.2-0.5 0-0.2 0.2-0.5 0.2-0.7v-0.5-0.5-0.7-0.7l-0.2-0.3z" fill="#3B4552" /><path d="M320.8 709.4l22-0.3c0-6.8 0-7.6 0.3-9h-22.3l1.9-7.1 20.6-0.3c3-34.8 19.8-72.6 52.2-72.6 11.2 0 22.6 3.5 30.6 8.6l2.4 27.9-4.9 0.8c-4.9-22-17.2-30.6-27.4-30.6-25.2 0-35.5 40.9-37.5 65.7l64.4-1.9-1.9 8.4-63 0.8v9l62.5-1.7-1.9 8.1-60.3 1c2.2 32.8 12.5 64 36.8 64 14 0 25.2-13.9 30.2-34.8l6.3 1c-1.9 12.7-4.4 21.6-5.9 33.8-7.8 4.6-20.3 7.1-29.4 7.1-43.6 0-51.9-37.8-53.2-71.1l-23.8 0.3 1.3-7.1z" fill="#FF960B" /></svg>